<svg width="36" height="37" viewBox="0 0 36 37" fill="none" xmlns="http://www.w3.org/2000/svg">
<path fill-rule="evenodd" clip-rule="evenodd" d="M9 5C6.51472 5 4.5 7.01472 4.5 9.5V17C4.5 25.2843 11.2157 32 19.5 32H27C29.4853 32 31.5 29.9853 31.5 27.5V23C31.5 22.1716 30.8284 21.5 30 21.5H19.5C18.6716 21.5 18 22.1716 18 23V28.9072C12.5719 28.2303 8.26971 23.9281 7.59284 18.5H13.5C14.3284 18.5 15 17.8284 15 17V6.5C15 5.67157 14.3284 5 13.5 5H9ZM7.5 9.5C7.5 8.67157 8.17157 8 9 8H12V15.5H7.5V9.5ZM28.5 27.5C28.5 28.3284 27.8284 29 27 29H21V24.5H28.5V27.5Z" fill="#5EBE90"/>
<path d="M18 8C18 7.17157 18.6716 6.5 19.5 6.5C25.299 6.5 30 11.201 30 17C30 17.8284 29.3284 18.5 28.5 18.5C27.6716 18.5 27 17.8284 27 17C27 12.8579 23.6421 9.5 19.5 9.5C18.6716 9.5 18 8.82843 18 8Z" fill="#5EBE90"/>
<path d="M18 14C18 13.1716 18.6716 12.5 19.5 12.5C21.9853 12.5 24 14.5147 24 17C24 17.8284 23.3284 18.5 22.5 18.5C21.6716 18.5 21 17.8284 21 17C21 16.1716 20.3284 15.5 19.5 15.5C18.6716 15.5 18 14.8284 18 14Z" fill="#5EBE90"/>
</svg>
