<svg width="29" height="31" viewBox="0 0 29 31" fill="none" xmlns="http://www.w3.org/2000/svg">
<g clip-path="url(#clip0_61_8)">
<mask id="mask0_61_8" style="mask-type:luminance" maskUnits="userSpaceOnUse" x="0" y="0" width="29" height="31">
<path d="M29 0.5H0V30.5H29V0.5Z" fill="white"/>
</mask>
<g mask="url(#mask0_61_8)">
<path d="M3.62498 13.625C3.62498 8.44733 7.6824 4.25 12.6875 4.25C17.6926 4.25 21.75 8.44733 21.75 13.625C21.75 18.8027 17.6926 23 12.6875 23H3.62498V13.625ZM12.6875 1.75C6.34771 1.75 1.20831 7.06662 1.20831 13.625V24.25C1.20831 24.9404 1.7493 25.5 2.41665 25.5H10.7122C12.2306 28.4717 15.2497 30.5 18.7291 30.5H26.5833C27.2507 30.5 27.7916 29.9404 27.7916 29.25V21.125C27.7916 18.0565 26.3658 15.3332 24.1666 13.6245C24.1664 7.06634 19.0271 1.75 12.6875 1.75ZM23.7871 16.6649C24.778 17.8662 25.375 19.4237 25.375 21.125V28H18.7291C16.6508 28 14.7938 27.0131 13.5744 25.4651C18.5035 25.0755 22.5617 21.4655 23.7871 16.6649Z" fill="#5EBE90"/>
</g>
</g>
<defs>
<clipPath id="clip0_61_8">
<rect width="29" height="30" fill="white" transform="translate(0 0.5)"/>
</clipPath>
</defs>
</svg>
