<svg width="29" height="25" viewBox="0 0 29 25" fill="none" xmlns="http://www.w3.org/2000/svg">
<path d="M3.625 1.25C1.62297 1.25 0 2.92893 0 5V20C0 22.0711 1.62297 23.75 3.625 23.75H25.375C27.377 23.75 29 22.0711 29 20V5C29 2.92893 27.377 1.25 25.375 1.25H3.625ZM2.41667 5.66898L12.4892 12.6156C13.7068 13.4553 15.2932 13.4553 16.5108 12.6156L26.5833 5.66898V20C26.5833 20.6904 26.0423 21.25 25.375 21.25H3.625C2.95766 21.25 2.41667 20.6904 2.41667 20V5.66898ZM25.0091 3.75L15.1703 10.5354C14.7644 10.8154 14.2356 10.8154 13.8297 10.5354L3.99085 3.75H25.0091Z" fill="#5EBE90"/>
</svg>
