<svg width="37" height="38" viewBox="0 0 37 38" fill="none" xmlns="http://www.w3.org/2000/svg">
<path fill-rule="evenodd" clip-rule="evenodd" d="M18.5 3.5835C24.46 3.5835 29.2916 8.41509 29.2916 14.3752C29.5075 19.2006 25.6379 25.6293 19.7487 33.7693C19.4588 34.1698 18.9944 34.4069 18.5 34.4069C18.0056 34.4069 17.5411 34.1698 17.2512 33.7693C11.362 25.6139 7.49246 19.1852 7.7083 14.3752C7.7083 8.41509 12.5399 3.5835 18.5 3.5835ZM18.5 30.2697C22.6162 24.4422 26.4241 18.291 26.2083 14.5139V14.4677V14.3752C26.2083 10.118 22.7572 6.66683 18.5 6.66683C14.2428 6.66683 10.7916 10.118 10.7916 14.3752V14.4677C10.5758 18.2447 14.3837 24.396 18.5 30.2697ZM18.5 9.75016C15.9456 9.75016 13.875 11.8208 13.875 14.3752C13.875 16.9295 15.9456 19.0002 18.5 19.0002C21.0543 19.0002 23.125 16.9295 23.125 14.3752C23.125 13.1485 22.6377 11.9721 21.7703 11.1048C20.903 10.2374 19.7266 9.75016 18.5 9.75016ZM16.9583 14.3752C16.9583 15.2266 17.6485 15.9168 18.5 15.9168C19.3514 15.9168 20.0416 15.2266 20.0416 14.3752C20.0416 13.5237 19.3514 12.8335 18.5 12.8335C17.6485 12.8335 16.9583 13.5237 16.9583 14.3752Z" fill="#5EBE90"/>
</svg>
